<svg width="188" height="143" viewBox="0 0 188 143" fill="none" xmlns="http://www.w3.org/2000/svg">
<path d="M6.14432 21.4118C6.14432 12.9001 12.6735 6 20.7277 6H166.561C174.615 6 181.144 12.9883 181.144 21.5V121.588C181.144 130.1 174.615 137 166.561 137H20.7276C12.6735 137 6.14432 130.1 6.14432 121.588V21.4118Z" stroke="black" stroke-width="12" stroke-linejoin="round"/>
<path d="M6.3856 31.7038C6.23132 31.5733 6.13551 31.3793 6.12219 31.1777C4.75276 10.4544 15.2414 6 20.2034 6H167.085C172.049 6 182.543 8.476 181.165 30.6766C181.153 30.8784 181.058 31.074 180.904 31.2052L108.426 93C100.063 101.102 87.2261 101.102 78.8628 93L6.3856 31.7038Z" stroke="black" stroke-width="12" stroke-linejoin="round"/>
</svg>
