<svg xmlns="http://www.w3.org/2000/svg" xmlns:xlink="http://www.w3.org/1999/xlink" aria-hidden="true" role="img" width="24" height="24" viewBox="0 0 24 24" class="iconify iconify--solar"><path fill="currentColor" fill-rule="evenodd" d="M3.25 7A.75.75 0 0 1 4 6.25h16a.75.75 0 0 1 0 1.5H4A.75.75 0 0 1 3.25 7" clip-rule="evenodd"></path><path fill="currentColor" d="M3.25 12a.75.75 0 0 1 .75-.75h11a.75.75 0 0 1 0 1.5H4a.75.75 0 0 1-.75-.75" opacity=".7"></path><path fill="currentColor" d="M3.25 17a.75.75 0 0 1 .75-.75h5a.75.75 0 0 1 0 1.5H4a.75.75 0 0 1-.75-.75" opacity=".4"></path></svg>