<svg width="57" height="110" viewBox="0 0 57 110" fill="currentColor" xmlns="http://www.w3.org/2000/svg">
<path d="M0.469352 36.5948V101.98C0.469352 106.409 4.10245 110 8.58432 110H48.885C53.3669 110 57 106.409 57 101.98V8.50739C57 4.07813 53.3669 0.487685 48.885 0.487685H47.2642V0.216749C47.2642 0.0975369 47.1666 0 47.0449 0H38.2906C38.17 0 38.0713 0.0975369 38.0713 0.216749V0.487685H8.58432C4.10245 0.487685 0.469352 4.07813 0.469352 8.50739V10.1959M0.469352 31.4828V31.4372H0.219324C0.0986956 31.4372 0 31.5348 0 31.654V36.378C0 36.4972 0.0986956 36.5948 0.219324 36.5948H0.469352V36.5493M0.469352 25.7032V31.4372ZM0.469352 21.7193V21.6835H0.219324C0.0986956 21.6835 0 21.7594 0 21.8526V25.5341C0 25.6273 0.0986956 25.7032 0.219324 25.7032H0.469352V25.6674M0.469352 15.3534V21.6835ZM0.469352 10.2414V10.1959H0.219324C0.0986956 10.1959 0 10.2934 0 10.4126V15.1367C0 15.2559 0.0986956 15.3534 0.219324 15.3534H0.469352V15.3079M23.3748 10.0477C23.3748 9.4057 23.9296 8.88529 24.6141 8.88529H32.855C33.5393 8.88529 34.0943 9.4057 34.0943 10.0477V10.193C34.0943 10.8351 33.5393 11.3555 32.855 11.3555H24.6141C23.9296 11.3555 23.3748 10.8351 23.3748 10.193V10.0477ZM19.121 8.82579C19.8445 8.82579 20.4309 9.40538 20.4309 10.1204C20.4309 10.8355 19.8445 11.4151 19.121 11.4151C18.3974 11.4151 17.8109 10.8355 17.8109 10.1204C17.8109 9.40538 18.3974 8.82579 19.121 8.82579ZM28.7346 105.259C25.8022 105.259 23.4251 102.909 23.4251 100.012C23.4251 97.1136 25.8022 94.7643 28.7346 94.7643C31.6668 94.7643 34.0441 97.1136 34.0441 100.012C34.0441 102.909 31.6669 105.259 28.7346 105.259ZM4.17033 19.4351C4.17033 19.0761 4.46488 18.7849 4.8283 18.7849H52.6408C53.0041 18.7849 53.2988 19.0761 53.2988 19.4351V90.601C53.2988 90.96 53.0041 91.2512 52.6408 91.2512H4.8283C4.46488 91.2512 4.17033 90.9599 4.17033 90.601" fill="currentColor"/>
</svg>
